<?xml version="1.0" encoding="UTF-8"?>
<svg id="Layer_2" xmlns="http://www.w3.org/2000/svg" viewBox="0 0 239.21 170.18">
  <defs>
    <linearGradient id="linear-gradient" x1="68.42" y1="50" x2="170.79" y2="50" gradientUnits="userSpaceOnUse">
      <stop offset="0" stop-color="#ff927b"/>
      <stop offset=".83" stop-color="#f34b6f"/>
    </linearGradient>
  </defs>
  <g id="Layer_1-2">
    <g>
      <path fill="#02143f" d="M0,133.12h5.25v-8.85h9.83v8.85h6.51v6.65h-6.51v19.12c0,2.81,1.55,3.77,3.77,3.77,1.26,0,2.96-.07,2.96-.07v7.39s-2.29.15-6.28.15c-4.88,0-10.28-1.92-10.28-9.09v-21.26H0v-6.65Z"/>
      <path fill="#02143f" d="M24.68,150.14c0-11.31,8.06-20.04,19.81-20.04s19.81,8.72,19.81,20.04-8.06,20.04-19.81,20.04-19.81-8.72-19.81-20.04ZM54.1,150.14c0-7.39-3.47-12.42-9.61-12.42s-9.61,5.03-9.61,12.42,3.4,12.35,9.61,12.35,9.61-4.95,9.61-12.35Z"/>
      <path fill="#02143f" d="M68.21,120.39h10.87l17.6,26.72c1.7,2.71,3.7,5.95,3.7,5.95h.15s-.3-3.16-.3-6.63v-26.05h10.57v49.67h-10.35l-18.04-26.45c-1.7-2.64-3.77-6.88-3.77-6.88h-.15s.3,4.22.3,7.69v25.63h-10.57v-49.67Z"/>
      <path fill="#02143f" d="M114.98,120.18h10.05v9.02h-10.05v-9.02ZM114.98,135.28h10.05v34.78h-10.05v-34.78Z"/>
      <path fill="#02143f" d="M144.04,152.76l-4.36,4.51v12.79h-9.98v-49.88h9.98v26.3l13.46-14.34h12.05l-13.97,14.42,15.67,23.51h-12.2l-10.65-17.3Z"/>
      <path fill="#02143f" d="M190.79,164.85h-.15c-1.92,2.88-4.66,5.1-11.16,5.1-7.76,0-13.23-4.07-13.23-11.61,0-8.35,6.8-11.02,15.23-12.2,6.28-.89,9.17-1.4,9.17-4.29s-2.14-4.51-6.36-4.51c-4.73,0-7.02,1.7-7.32,5.32h-8.95c.3-6.65,5.25-12.49,16.34-12.49s15.97,5.1,15.97,13.97v19.3c0,2.88.44,4.58,1.33,5.25v.37h-9.68c-.59-.74-.96-2.51-1.18-4.21ZM190.86,155.69v-5.69c-1.77,1.04-4.51,1.63-7.02,2.22-5.25,1.18-7.84,2.37-7.84,5.91s2.37,4.81,5.91,4.81c5.77,0,8.95-3.55,8.95-7.25Z"/>
      <path fill="#02143f" d="M214.89,137.09h.22c2.74-3.99,5.84-5.99,11.02-5.99,7.84,0,13.09,5.91,13.09,14.19v24.77h-10.05v-23.29c0-4.07-2.37-6.95-6.58-6.95-4.44,0-7.69,3.55-7.69,8.72v21.51h-10.05v-49.88h10.05v16.91Z"/>
    </g>
    <path fill="url(#linear-gradient)" d="M129.24,58.07c-4.75,5.75-9.6,10.63-16.7,12.38,2.63,2.64,5.15,5.17,7.85,7.88,3.47-3.95,7.05-7.91,10.51-11.97,5.32-6.24,10.64-12.49,15.82-18.86,3.9-4.79,5.47-10.39,4.21-16.47-1.27-6.08-5.02-10.26-11.17-11.6-6.51-1.42-12.1.68-16.37,5.81-2.81,3.38-4.39,7.29-4.07,11.8-3.6-.2-6.53-2.89-7.4-6.69-1.97-8.58,2.57-19.41,10.49-25.04,12.69-9.02,30.01-6.3,40.21,6.32,11.67,14.43,10.84,34.82-2.59,48.46-13.28,13.48-27.05,26.48-40.84,39.91-1.73-1.74-4.14-4.14-6.53-6.55-11.51-11.59-23.23-22.97-34.47-34.82-13.45-14.19-12.91-36.35.95-49.53,8.36-7.95,18.27-10.73,30.17-7.7-8.1,3.89-14.76,8.82-18.27,16.86-3.54,8.1-3.38,16.34.48,24.29,5.66,11.64,19.45,20.03,37.7,15.52Z"/>
  </g>
</svg>
