<?xml version="1.0" encoding="UTF-8"?>
<svg id="Layer_2" xmlns="http://www.w3.org/2000/svg" viewBox="0 0 328.78 70">
  <defs>
    <linearGradient id="linear-gradient" x1="0" y1="35" x2="71.65" y2="35" gradientUnits="userSpaceOnUse">
      <stop offset="0" stop-color="#ff927b"/>
      <stop offset=".83" stop-color="#f34b6f"/>
    </linearGradient>
  </defs>
  <g id="Layer_1-2">
    <g>
      <path fill="#02143f" d="M89.57,22.95h5.25v-8.85h9.83v8.85h6.51v6.65h-6.51v19.12c0,2.81,1.55,3.77,3.77,3.77,1.26,0,2.96-.07,2.96-.07v7.39s-2.29.15-6.28.15c-4.88,0-10.28-1.92-10.28-9.09v-21.26h-5.25v-6.65Z"/>
      <path fill="#02143f" d="M114.25,39.96c0-11.31,8.06-20.04,19.81-20.04s19.81,8.72,19.81,20.04-8.06,20.04-19.81,20.04-19.81-8.72-19.81-20.04ZM143.68,39.96c0-7.39-3.47-12.42-9.61-12.42s-9.61,5.03-9.61,12.42,3.4,12.35,9.61,12.35,9.61-4.95,9.61-12.35Z"/>
      <path fill="#02143f" d="M157.78,10.22h10.87l17.6,26.72c1.7,2.71,3.7,5.95,3.7,5.95h.15s-.3-3.16-.3-6.63V10.22h10.57v49.67h-10.35l-18.04-26.45c-1.7-2.64-3.77-6.88-3.77-6.88h-.15s.3,4.22.3,7.69v25.63h-10.57V10.22Z"/>
      <path fill="#02143f" d="M204.55,10h10.05v9.02h-10.05v-9.02ZM204.55,25.1h10.05v34.78h-10.05V25.1Z"/>
      <path fill="#02143f" d="M233.61,42.58l-4.36,4.51v12.79h-9.98V10h9.98v26.3l13.46-14.34h12.05l-13.97,14.42,15.67,23.51h-12.2l-10.65-17.3Z"/>
      <path fill="#02143f" d="M280.36,54.68h-.15c-1.92,2.88-4.66,5.1-11.16,5.1-7.76,0-13.23-4.07-13.23-11.61,0-8.35,6.8-11.02,15.23-12.2,6.28-.89,9.17-1.4,9.17-4.29s-2.14-4.51-6.36-4.51c-4.73,0-7.02,1.7-7.32,5.32h-8.95c.3-6.65,5.25-12.49,16.34-12.49s15.97,5.1,15.97,13.97v19.3c0,2.88.44,4.58,1.33,5.25v.37h-9.68c-.59-.74-.96-2.51-1.18-4.21ZM280.43,45.51v-5.69c-1.77,1.04-4.51,1.63-7.02,2.22-5.25,1.18-7.84,2.37-7.84,5.91s2.37,4.81,5.91,4.81c5.77,0,8.95-3.55,8.95-7.25Z"/>
      <path fill="#02143f" d="M304.46,26.91h.22c2.74-3.99,5.84-5.99,11.02-5.99,7.84,0,13.09,5.91,13.09,14.19v24.77h-10.05v-23.29c0-4.07-2.37-6.95-6.58-6.95-4.44,0-7.69,3.55-7.69,8.72v21.51h-10.05V10h10.05v16.91Z"/>
    </g>
    <path fill="url(#linear-gradient)" d="M42.57,40.65c-3.32,4.03-6.72,7.44-11.69,8.67,1.84,1.85,3.61,3.62,5.5,5.51,2.43-2.76,4.93-5.54,7.36-8.38,3.73-4.37,7.45-8.74,11.07-13.2,2.73-3.35,3.83-7.27,2.94-11.53-.89-4.26-3.51-7.19-7.82-8.12-4.56-.99-8.47.47-11.46,4.07-1.97,2.37-3.07,5.1-2.85,8.26-2.52-.14-4.57-2.02-5.18-4.68-1.38-6.01,1.8-13.58,7.34-17.53,8.88-6.32,21-4.41,28.15,4.42,8.17,10.1,7.58,24.38-1.81,33.92-9.29,9.44-18.93,18.53-28.59,27.94-1.21-1.22-2.9-2.9-4.57-4.59-8.06-8.11-16.26-16.08-24.13-24.37C-2.58,31.11-2.19,15.6,7.51,6.37,13.36.8,20.3-1.14,28.63.98c-5.67,2.72-10.33,6.17-12.79,11.8-2.48,5.67-2.37,11.44.34,17,3.96,8.15,13.62,14.02,26.39,10.87Z"/>
  </g>
</svg>
