<svg id="alcohol" xmlns="http://www.w3.org/2000/svg" width="17.053" height="18" viewBox="0 0 17.053 18">
  <path id="liquor_24dp_000_FILL0_wght300_GRAD0_opsz24" d="M140-842v-1.421h1.74v-3.168a2.355,2.355,0,0,1-1.266-.861A2.358,2.358,0,0,1,140-848.9v-7.069h4.9v7.069a2.355,2.355,0,0,1-.478,1.446,2.359,2.359,0,0,1-1.262.87v3.168h1.74V-842Zm1.421-9.5h2.059v-3.052h-2.059Zm1.029,3.625a.993.993,0,0,0,.73-.3.993.993,0,0,0,.3-.73v-1.175h-2.059v1.175a.993.993,0,0,0,.3.73A.994.994,0,0,0,142.45-847.876ZM148.964-842a1.368,1.368,0,0,1-1-.418,1.368,1.368,0,0,1-.418-1v-9.111a1.334,1.334,0,0,1,.273-.823,1.525,1.525,0,0,1,.7-.521l.9-.341a1.719,1.719,0,0,0,.734-.471,1.323,1.323,0,0,0,.257-.885v-3.587a.812.812,0,0,1,.241-.6.811.811,0,0,1,.6-.241h2.113a.812.812,0,0,1,.6.241.812.812,0,0,1,.241.6v3.589a1.306,1.306,0,0,0,.261.885,1.755,1.755,0,0,0,.739.471l.909.341a1.474,1.474,0,0,1,.687.522,1.362,1.362,0,0,1,.264.823v9.111a1.368,1.368,0,0,1-.418,1,1.368,1.368,0,0,1-1,.418Zm2.86-15.586h.947v-.993h-.947Zm-2.86,6.868h6.668v-1.814l-.909-.341a3.208,3.208,0,0,1-1.426-.983,2.6,2.6,0,0,1-.526-1.688v-.621h-.947v.621a2.6,2.6,0,0,1-.526,1.688,3.206,3.206,0,0,1-1.426.983l-.909.341Zm0,7.3h6.668v-2.223h-6.668Zm0-3.644h6.668V-849.3h-6.668ZM142.45-850.08Zm6.513,3.015v0Z" transform="translate(-140 860)" fill="#02143f"/>
</svg>
