<svg id="assignment_ind_24dp_000_FILL0_wght300_GRAD0_opsz24" xmlns="http://www.w3.org/2000/svg" width="16.105" height="18" viewBox="0 0 16.105 18">
  <path id="assignment_ind_24dp_000_FILL0_wght300_GRAD0_opsz24-2" data-name="assignment_ind_24dp_000_FILL0_wght300_GRAD0_opsz24" d="M141.713-882a1.653,1.653,0,0,1-1.215-.5,1.653,1.653,0,0,1-.5-1.215v-12.68a1.653,1.653,0,0,1,.5-1.215,1.653,1.653,0,0,1,1.215-.5h4.216a2.2,2.2,0,0,1,.705-1.346,2.015,2.015,0,0,1,1.419-.549,2.015,2.015,0,0,1,1.419.549,2.2,2.2,0,0,1,.705,1.346h4.216a1.653,1.653,0,0,1,1.215.5,1.653,1.653,0,0,1,.5,1.215v12.68a1.653,1.653,0,0,1-.5,1.215,1.653,1.653,0,0,1-1.215.5Zm6.34-15.3a.69.69,0,0,0,.509-.2.69.69,0,0,0,.2-.509.69.69,0,0,0-.2-.509.69.69,0,0,0-.509-.2.69.69,0,0,0-.509.2.69.69,0,0,0-.2.509.69.69,0,0,0,.2.509A.69.69,0,0,0,148.053-897.3Zm-6.632,12.975a9.549,9.549,0,0,1,2.972-1.978,9.228,9.228,0,0,1,3.659-.722,9.228,9.228,0,0,1,3.659.722,9.549,9.549,0,0,1,2.972,1.978v-12.064a.278.278,0,0,0-.091-.2.278.278,0,0,0-.2-.091h-12.68a.278.278,0,0,0-.2.091.278.278,0,0,0-.091.2Zm6.632-4.74a2.97,2.97,0,0,0,2.181-.9,2.97,2.97,0,0,0,.9-2.181,2.97,2.97,0,0,0-.9-2.181,2.97,2.97,0,0,0-2.181-.9,2.97,2.97,0,0,0-2.181.9,2.97,2.97,0,0,0-.9,2.181,2.97,2.97,0,0,0,.9,2.181A2.97,2.97,0,0,0,148.053-889.069Zm-5.265,5.648h10.53v-.2a7.622,7.622,0,0,0-2.462-1.494,8.07,8.07,0,0,0-2.8-.492,8.122,8.122,0,0,0-2.789.487,7.726,7.726,0,0,0-2.476,1.48Zm5.265-7.069a1.6,1.6,0,0,1-1.17-.487,1.6,1.6,0,0,1-.487-1.17,1.6,1.6,0,0,1,.487-1.17,1.6,1.6,0,0,1,1.17-.487,1.6,1.6,0,0,1,1.17.487,1.6,1.6,0,0,1,.487,1.17,1.6,1.6,0,0,1-.487,1.17,1.6,1.6,0,0,1-1.17.487ZM148.053-890.506Z" transform="translate(-140 900)" fill="#02143f"/>
</svg>
