<svg id="calendar" xmlns="http://www.w3.org/2000/svg" width="16.008" height="18" viewBox="0 0 16.008 18">
  <path id="event_24dp_000_FILL0_wght300_GRAD0_opsz24" d="M150.539-849.906a2.1,2.1,0,0,1-1.54-.633,2.1,2.1,0,0,1-.633-1.54,2.1,2.1,0,0,1,.633-1.54,2.1,2.1,0,0,1,1.54-.633,2.1,2.1,0,0,1,1.54.633,2.1,2.1,0,0,1,.633,1.54,2.1,2.1,0,0,1-.633,1.54A2.1,2.1,0,0,1,150.539-849.906Zm-8.837,3.3a1.643,1.643,0,0,1-1.208-.494,1.643,1.643,0,0,1-.494-1.208v-12.6a1.643,1.643,0,0,1,.494-1.208,1.643,1.643,0,0,1,1.208-.494h1.3v-1.992h1.449v1.992h7.135v-1.992H153v1.992h1.3a1.643,1.643,0,0,1,1.208.494,1.643,1.643,0,0,1,.494,1.208v12.6a1.643,1.643,0,0,1-.494,1.208,1.643,1.643,0,0,1-1.208.494Zm0-1.412h12.6a.276.276,0,0,0,.2-.091.276.276,0,0,0,.091-.2v-8.837H141.412v8.837a.276.276,0,0,0,.091.2A.276.276,0,0,0,141.7-848.022Zm-.29-10.539H154.6v-2.354a.276.276,0,0,0-.091-.2.276.276,0,0,0-.2-.091H141.7a.276.276,0,0,0-.2.091.276.276,0,0,0-.091.2Zm0,0v0Z" transform="translate(-140 864.61)" fill="#02143f"/>
</svg>
