<svg id="photo_camera_24dp_000_FILL0_wght300_GRAD0_opsz24" xmlns="http://www.w3.org/2000/svg" width="24.588" height="22" viewBox="0 0 24.588 22">
  <path id="photo_camera_24dp_000_FILL0_wght300_GRAD0_opsz24-2" data-name="photo_camera_24dp_000_FILL0_wght300_GRAD0_opsz24" d="M112.294-802.38a5.139,5.139,0,0,0,3.777-1.549,5.139,5.139,0,0,0,1.549-3.777,5.139,5.139,0,0,0-1.549-3.777,5.139,5.139,0,0,0-3.777-1.549,5.139,5.139,0,0,0-3.777,1.549,5.139,5.139,0,0,0-1.549,3.777,5.139,5.139,0,0,0,1.549,3.777A5.139,5.139,0,0,0,112.294-802.38Zm0-1.941a3.272,3.272,0,0,1-2.409-.976,3.272,3.272,0,0,1-.976-2.409,3.272,3.272,0,0,1,.976-2.409,3.272,3.272,0,0,1,2.409-.976,3.272,3.272,0,0,1,2.409.976,3.272,3.272,0,0,1,.976,2.409,3.272,3.272,0,0,1-.976,2.409A3.272,3.272,0,0,1,112.294-804.321ZM102.339-798a2.258,2.258,0,0,1-1.66-.679,2.258,2.258,0,0,1-.679-1.66v-14.733a2.258,2.258,0,0,1,.679-1.66,2.258,2.258,0,0,1,1.66-.679h3.952L108.685-820H115.9l2.394,2.588h3.952a2.258,2.258,0,0,1,1.66.679,2.258,2.258,0,0,1,.679,1.66v14.733a2.258,2.258,0,0,1-.679,1.66,2.258,2.258,0,0,1-1.66.679Zm0-1.941h19.909a.388.388,0,0,0,.286-.112.388.388,0,0,0,.112-.286v-14.733a.387.387,0,0,0-.112-.286.387.387,0,0,0-.286-.112h-4.818l-2.374-2.588h-5.525l-2.374,2.588h-4.818a.387.387,0,0,0-.286.112.388.388,0,0,0-.112.286v14.733a.388.388,0,0,0,.112.286A.388.388,0,0,0,102.339-799.941ZM112.294-807.706Z" transform="translate(-100 820)" fill="#02143f"/>
</svg>
