<svg id="compass" xmlns="http://www.w3.org/2000/svg" width="18" height="18" viewBox="0 0 18 18">
  <path id="explore_24dp_000_FILL0_wght300_GRAD0_opsz24" d="M105.047-847.047l6.067-1.84,1.84-6.067-6.067,1.84ZM109-849.761a1.189,1.189,0,0,1-.877-.362,1.2,1.2,0,0,1-.36-.879,1.189,1.189,0,0,1,.362-.877,1.2,1.2,0,0,1,.879-.36,1.189,1.189,0,0,1,.877.362,1.2,1.2,0,0,1,.36.879,1.189,1.189,0,0,1-.362.877A1.2,1.2,0,0,1,109-849.761ZM109-842a8.768,8.768,0,0,1-3.51-.709,9.092,9.092,0,0,1-2.858-1.923,9.09,9.09,0,0,1-1.924-2.857A8.76,8.76,0,0,1,100-851a8.768,8.768,0,0,1,.709-3.51,9.091,9.091,0,0,1,1.923-2.858,9.09,9.09,0,0,1,2.857-1.924A8.759,8.759,0,0,1,109-860a8.768,8.768,0,0,1,3.51.709,9.09,9.09,0,0,1,2.858,1.923,9.09,9.09,0,0,1,1.924,2.857A8.76,8.76,0,0,1,118-851a8.768,8.768,0,0,1-.709,3.51,9.09,9.09,0,0,1-1.923,2.858,9.09,9.09,0,0,1-2.857,1.924A8.76,8.76,0,0,1,109-842Zm0-1.421a7.309,7.309,0,0,0,5.369-2.21,7.309,7.309,0,0,0,2.21-5.369,7.309,7.309,0,0,0-2.21-5.369,7.309,7.309,0,0,0-5.369-2.21,7.309,7.309,0,0,0-5.369,2.21,7.309,7.309,0,0,0-2.21,5.369,7.309,7.309,0,0,0,2.21,5.369A7.309,7.309,0,0,0,109-843.421ZM109-851Z" transform="translate(-100 860)" fill="#02143f"/>
</svg>
