<svg id="complexion" xmlns="http://www.w3.org/2000/svg" width="18" height="18" viewBox="0 0 18 18">
  <path id="palette_24dp_000_FILL0_wght300_GRAD0_opsz24" d="M108.982-842a8.658,8.658,0,0,1-3.48-.71,9.139,9.139,0,0,1-2.86-1.932,9.125,9.125,0,0,1-1.932-2.865A8.714,8.714,0,0,1,100-851a8.574,8.574,0,0,1,.729-3.517,9.067,9.067,0,0,1,1.98-2.858,9.366,9.366,0,0,1,2.926-1.92,9.116,9.116,0,0,1,3.573-.705,9.376,9.376,0,0,1,3.367.606,8.943,8.943,0,0,1,2.794,1.677,8.1,8.1,0,0,1,1.917,2.546,7.238,7.238,0,0,1,.714,3.2,5.051,5.051,0,0,1-1.462,3.848,5.223,5.223,0,0,1-3.748,1.388h-1.716a.835.835,0,0,0-.647.264.894.894,0,0,0-.242.625,1.536,1.536,0,0,0,.355.913,1.764,1.764,0,0,1,.355,1.088,1.755,1.755,0,0,1-.519,1.393A2.041,2.041,0,0,1,108.982-842ZM109-851Zm-5.211.711a1.147,1.147,0,0,0,.845-.339,1.147,1.147,0,0,0,.339-.845,1.147,1.147,0,0,0-.339-.845,1.147,1.147,0,0,0-.845-.339,1.147,1.147,0,0,0-.845.339,1.147,1.147,0,0,0-.339.845,1.147,1.147,0,0,0,.339.845A1.147,1.147,0,0,0,103.789-850.289Zm2.842-3.789a1.147,1.147,0,0,0,.845-.339,1.147,1.147,0,0,0,.339-.845,1.147,1.147,0,0,0-.339-.845,1.147,1.147,0,0,0-.845-.339,1.147,1.147,0,0,0-.845.339,1.147,1.147,0,0,0-.339.845,1.147,1.147,0,0,0,.339.845A1.147,1.147,0,0,0,106.632-854.079Zm4.737,0a1.147,1.147,0,0,0,.845-.339,1.147,1.147,0,0,0,.339-.845,1.147,1.147,0,0,0-.339-.845,1.147,1.147,0,0,0-.845-.339,1.147,1.147,0,0,0-.845.339,1.147,1.147,0,0,0-.339.845,1.147,1.147,0,0,0,.339.845A1.147,1.147,0,0,0,111.368-854.079Zm2.842,3.789a1.147,1.147,0,0,0,.845-.339,1.147,1.147,0,0,0,.339-.845,1.147,1.147,0,0,0-.339-.845,1.147,1.147,0,0,0-.845-.339,1.147,1.147,0,0,0-.845.339,1.147,1.147,0,0,0-.339.845,1.147,1.147,0,0,0,.339.845A1.147,1.147,0,0,0,114.211-850.289Zm-5.229,6.868a.531.531,0,0,0,.362-.114.394.394,0,0,0,.13-.312,1.208,1.208,0,0,0-.355-.745,1.96,1.96,0,0,1-.355-1.3,2.121,2.121,0,0,1,.687-1.642,2.4,2.4,0,0,1,1.682-.629h1.658a3.861,3.861,0,0,0,2.731-.98,3.674,3.674,0,0,0,1.058-2.835,5.94,5.94,0,0,0-2.2-4.74,7.749,7.749,0,0,0-5.167-1.866,7.627,7.627,0,0,0-5.517,2.2A7.207,7.207,0,0,0,101.421-851a7.306,7.306,0,0,0,2.214,5.364A7.285,7.285,0,0,0,108.982-843.421Z" transform="translate(-100 860)" fill="#02143f"/>
</svg>
