<svg id="public_24dp_000_FILL0_wght300_GRAD0_opsz24" xmlns="http://www.w3.org/2000/svg" width="18" height="18" viewBox="0 0 18 18">
  <path id="public_24dp_000_FILL0_wght300_GRAD0_opsz24-2" data-name="public_24dp_000_FILL0_wght300_GRAD0_opsz24" d="M109-842a8.768,8.768,0,0,1-3.51-.709,9.092,9.092,0,0,1-2.858-1.923,9.09,9.09,0,0,1-1.924-2.857A8.76,8.76,0,0,1,100-851a8.768,8.768,0,0,1,.709-3.51,9.091,9.091,0,0,1,1.923-2.858,9.09,9.09,0,0,1,2.857-1.924A8.759,8.759,0,0,1,109-860a8.768,8.768,0,0,1,3.51.709,9.09,9.09,0,0,1,2.858,1.923,9.09,9.09,0,0,1,1.924,2.857A8.76,8.76,0,0,1,118-851a8.768,8.768,0,0,1-.709,3.51,9.09,9.09,0,0,1-1.923,2.858,9.09,9.09,0,0,1-2.857,1.924A8.76,8.76,0,0,1,109-842Zm-.949-1.468v-1.847a1.825,1.825,0,0,1-1.338-.557,1.825,1.825,0,0,1-.557-1.338v-.947l-4.547-4.547q-.071.426-.13.853a6.191,6.191,0,0,0-.059.853,7.4,7.4,0,0,0,1.883,5.021A7.291,7.291,0,0,0,108.053-843.468Zm6.537-2.416a7.569,7.569,0,0,0,1.48-2.38,7.517,7.517,0,0,0,.509-2.739,7.48,7.48,0,0,0-1.286-4.25,7.256,7.256,0,0,0-3.451-2.776v.4a1.824,1.824,0,0,1-.557,1.338,1.824,1.824,0,0,1-1.338.557h-1.895v1.895a.917.917,0,0,1-.272.675.917.917,0,0,1-.675.272h-1.895V-851h5.684a.917.917,0,0,1,.675.272.917.917,0,0,1,.272.675v2.842h.947a1.829,1.829,0,0,1,1.113.367A1.873,1.873,0,0,1,114.589-845.884Z" transform="translate(-100 860)" fill="#02143f"/>
</svg>
