<svg id="ethnic_group" xmlns="http://www.w3.org/2000/svg" width="25.128" height="18" viewBox="0 0 25.128 18">
  <path id="group_24dp_000_FILL0_wght300_GRAD0_opsz24" d="M71.93-754.31v-2.738a3.023,3.023,0,0,1,.491-1.7,3.349,3.349,0,0,1,1.313-1.163,19.005,19.005,0,0,1,3.531-1.324,15.373,15.373,0,0,1,3.9-.465,15.371,15.371,0,0,1,3.9.465A19,19,0,0,1,88.6-759.91a3.349,3.349,0,0,1,1.313,1.163,3.023,3.023,0,0,1,.491,1.7v2.738Zm20.936,0v-2.89a4.8,4.8,0,0,0-.594-2.311,5.6,5.6,0,0,0-1.685-1.885,12.981,12.981,0,0,1,2.352.572,15.819,15.819,0,0,1,2.124.915,4.386,4.386,0,0,1,1.474,1.2,2.456,2.456,0,0,1,.52,1.509v2.89Zm-11.7-9.379a4.15,4.15,0,0,1-3.044-1.266A4.152,4.152,0,0,1,76.856-768a4.15,4.15,0,0,1,1.266-3.044,4.15,4.15,0,0,1,3.044-1.266,4.151,4.151,0,0,1,3.044,1.266A4.15,4.15,0,0,1,85.477-768a4.151,4.151,0,0,1-1.266,3.044A4.151,4.151,0,0,1,81.166-763.689ZM91.8-768a4.151,4.151,0,0,1-1.266,3.044,4.15,4.15,0,0,1-3.044,1.266,3.78,3.78,0,0,1-.531-.047,4.659,4.659,0,0,1-.53-.1,6.536,6.536,0,0,0,1.12-1.943A6.4,6.4,0,0,0,87.94-768a6.211,6.211,0,0,0-.4-2.209,7.118,7.118,0,0,0-1.112-1.949,2.293,2.293,0,0,1,.53-.123,4.933,4.933,0,0,1,.531-.029,4.15,4.15,0,0,1,3.044,1.266A4.15,4.15,0,0,1,91.8-768ZM73.777-756.157H88.556v-.891a1.243,1.243,0,0,0-.193-.687,1.6,1.6,0,0,0-.612-.526,14.524,14.524,0,0,0-3.131-1.188,14.17,14.17,0,0,0-3.453-.4,14.168,14.168,0,0,0-3.453.4,14.524,14.524,0,0,0-3.131,1.188,1.606,1.606,0,0,0-.612.526,1.243,1.243,0,0,0-.193.687Zm7.389-9.379a2.372,2.372,0,0,0,1.74-.724A2.372,2.372,0,0,0,83.63-768a2.372,2.372,0,0,0-.724-1.74,2.372,2.372,0,0,0-1.74-.724,2.372,2.372,0,0,0-1.74.724A2.372,2.372,0,0,0,78.7-768a2.372,2.372,0,0,0,.724,1.74A2.372,2.372,0,0,0,81.166-765.536ZM81.166-756.157ZM81.166-768Z" transform="translate(-71.93 772.31)" fill="#02143f"/>
</svg>
