<svg id="following" xmlns="http://www.w3.org/2000/svg" width="18.189" height="18" viewBox="0 0 18.189 18">
  <path id="signpost-split" d="M8.065,8.02V1.569a1.155,1.155,0,1,1,2.31,0v.677h5.774a1.155,1.155,0,0,1,.924.462l1.126,1.5a.577.577,0,0,1,0,.693L17.073,6.4a1.155,1.155,0,0,1-.924.462H10.375V18.414H8.065V12.64H2.29a1.155,1.155,0,0,1-.924-.462L.24,10.676a.577.577,0,0,1,0-.693l1.126-1.5A1.155,1.155,0,0,1,2.29,8.02ZM9.22,11.485V9.175H2.29L1.424,10.33l.866,1.155Zm0-5.774h6.929l.866-1.155L16.149,3.4H9.22Z" transform="translate(-0.125 -0.414)" fill="#02143f"/>
</svg>
