<svg id="gender" xmlns="http://www.w3.org/2000/svg" width="15.117" height="18" viewBox="0 0 15.117 18">
  <path id="wc_24dp_000_FILL0_wght300_GRAD0_opsz24" d="M174.485-840.46v-6.793H173.08v-5.153a1.582,1.582,0,0,1,.478-1.161,1.581,1.581,0,0,1,1.161-.478h2.667a1.581,1.581,0,0,1,1.161.478,1.582,1.582,0,0,1,.478,1.161v5.153H177.62v6.793ZM176.053-855a1.668,1.668,0,0,1-1.224-.505,1.667,1.667,0,0,1-.505-1.224,1.667,1.667,0,0,1,.505-1.224,1.668,1.668,0,0,1,1.224-.505,1.668,1.668,0,0,1,1.224.505,1.667,1.667,0,0,1,.505,1.224,1.667,1.667,0,0,1-.505,1.224A1.668,1.668,0,0,1,176.053-855Zm7.261,14.541v-5.387h-2.541l2.137-7.1a1.452,1.452,0,0,1,.592-.815,1.732,1.732,0,0,1,.983-.287,1.732,1.732,0,0,1,.983.287,1.452,1.452,0,0,1,.592.815l2.137,7.1h-2.541v5.387ZM184.485-855a1.668,1.668,0,0,1-1.224-.505,1.667,1.667,0,0,1-.505-1.224,1.667,1.667,0,0,1,.505-1.224,1.668,1.668,0,0,1,1.224-.505,1.668,1.668,0,0,1,1.224.505,1.667,1.667,0,0,1,.505,1.224,1.667,1.667,0,0,1-.505,1.224A1.668,1.668,0,0,1,184.485-855Z" transform="translate(-173.08 858.46)" fill="#02143f"/>
</svg>
