<svg id="have_children" xmlns="http://www.w3.org/2000/svg" width="18" height="18" viewBox="0 0 18 18">
  <path id="child_care_24dp_000_FILL0_wght300_GRAD0_opsz24" d="M151.588-811.427a1.125,1.125,0,0,1-.825-.336,1.115,1.115,0,0,1-.338-.822,1.126,1.126,0,0,1,.336-.825,1.115,1.115,0,0,1,.823-.338,1.125,1.125,0,0,1,.825.336,1.115,1.115,0,0,1,.338.822,1.125,1.125,0,0,1-.336.825A1.115,1.115,0,0,1,151.588-811.427Zm-5.172,0a1.125,1.125,0,0,1-.825-.336,1.115,1.115,0,0,1-.338-.822,1.125,1.125,0,0,1,.336-.825,1.115,1.115,0,0,1,.822-.338,1.125,1.125,0,0,1,.825.336,1.115,1.115,0,0,1,.338.822,1.126,1.126,0,0,1-.336.825A1.115,1.115,0,0,1,146.416-811.427ZM149-806.113a4.732,4.732,0,0,1-2.612-.756,5.025,5.025,0,0,1-1.806-2.013h8.837a5.025,5.025,0,0,1-1.806,2.013A4.732,4.732,0,0,1,149-806.113ZM149-802a8.741,8.741,0,0,1-3.511-.709,9.113,9.113,0,0,1-2.855-1.926,9.116,9.116,0,0,1-1.926-2.854A8.74,8.74,0,0,1,140-811a8.741,8.741,0,0,1,.709-3.511,9.113,9.113,0,0,1,1.926-2.855,9.115,9.115,0,0,1,2.854-1.926A8.739,8.739,0,0,1,149-820a8.741,8.741,0,0,1,3.511.709,9.113,9.113,0,0,1,2.855,1.926,9.115,9.115,0,0,1,1.926,2.854A8.739,8.739,0,0,1,158-811a8.741,8.741,0,0,1-.709,3.511,9.113,9.113,0,0,1-1.926,2.855,9.115,9.115,0,0,1-2.854,1.926A8.739,8.739,0,0,1,149-802Zm0-1.588a7.141,7.141,0,0,0,5.241-2.171A7.141,7.141,0,0,0,156.412-811a7.142,7.142,0,0,0-2.171-5.241A7.142,7.142,0,0,0,149-818.412q-.223,0-.447.01a2.176,2.176,0,0,0-.433.063.977.977,0,0,0-.151.344,1.958,1.958,0,0,0-.033.377,1.433,1.433,0,0,0,.435,1.052,1.436,1.436,0,0,0,1.055.435,1.13,1.13,0,0,0,.449-.079.983.983,0,0,1,.395-.079.525.525,0,0,1,.413.19.653.653,0,0,1,.165.443.619.619,0,0,1-.488.637,3.147,3.147,0,0,1-.938.152,2.646,2.646,0,0,1-1.939-.809,2.646,2.646,0,0,1-.809-1.94v-.187a1.012,1.012,0,0,1,.037-.234,7.388,7.388,0,0,0-3.686,2.638,7.107,7.107,0,0,0-1.438,4.4,7.141,7.141,0,0,0,2.171,5.241A7.141,7.141,0,0,0,149-803.588ZM149-811Z" transform="translate(-140 820)" fill="#02143f"/>
</svg>
