<svg id="height" xmlns="http://www.w3.org/2000/svg" width="20.942" height="18" viewBox="0 0 20.942 18">
  <path id="height-2" data-name="height" d="M110.632-802v-9a8.683,8.683,0,0,1,2.62-6.379A8.679,8.679,0,0,1,119.63-820a8.688,8.688,0,0,1,6.38,2.62A8.676,8.676,0,0,1,128.632-811a8.687,8.687,0,0,1-2.621,6.38A8.68,8.68,0,0,1,119.632-802Zm1.688-1.687h7.313a7.049,7.049,0,0,0,5.175-2.138A7.049,7.049,0,0,0,126.945-811a7.049,7.049,0,0,0-2.138-5.175,7.049,7.049,0,0,0-5.175-2.138,7.049,7.049,0,0,0-5.175,2.138A7.049,7.049,0,0,0,112.32-811Zm7.313-3.656a3.525,3.525,0,0,0,2.589-1.067,3.526,3.526,0,0,0,1.067-2.59,3.526,3.526,0,0,0-1.067-2.59,3.526,3.526,0,0,0-2.589-1.067,3.526,3.526,0,0,0-2.59,1.067,3.526,3.526,0,0,0-1.066,2.59,3.526,3.526,0,0,0,1.066,2.59A3.526,3.526,0,0,0,119.632-807.344Zm0-1.687a1.9,1.9,0,0,1-1.394-.575,1.9,1.9,0,0,1-.573-1.4,1.9,1.9,0,0,1,.575-1.394,1.9,1.9,0,0,1,1.4-.573,1.9,1.9,0,0,1,1.394.575,1.9,1.9,0,0,1,.573,1.4,1.9,1.9,0,0,1-.575,1.394A1.9,1.9,0,0,1,119.631-809.031ZM107.69-802v-5.062h1.688V-802ZM119.632-811Z" transform="translate(-107.69 820)" fill="#02143f"/>
</svg>
