<svg id="location_city_24dp_000_FILL0_wght300_GRAD0_opsz24" xmlns="http://www.w3.org/2000/svg" width="15.26" height="18" viewBox="0 0 15.26 18">
  <path id="location_city_24dp_000_FILL0_wght300_GRAD0_opsz24-2" data-name="location_city_24dp_000_FILL0_wght300_GRAD0_opsz24" d="M160.77-872v-12.907h5v-2.519L168.4-890l2.629,2.574v6.343h5V-872Zm1.434-1.434h2.39v-2.39H162.2Zm0-3.824h2.39v-2.39H162.2Zm0-3.824h2.39v-2.39H162.2Zm5,7.649h2.39v-2.39h-2.39Zm0-3.824h2.39v-2.39h-2.39Zm0-3.824h2.39v-2.39h-2.39Zm0-3.824h2.39v-2.39h-2.39Zm5,11.473h2.39v-2.39h-2.39Zm0-3.824h2.39v-2.39h-2.39Z" transform="translate(-160.77 890)" fill="#02143f"/>
</svg>
