<svg xmlns="http://www.w3.org/2000/svg" width="12.725" height="18" viewBox="0 0 12.725 18">
  <path id="mic_24dp_000_FILL0_wght300_GRAD0_opsz24" d="M228.331-849.151a2.38,2.38,0,0,1-1.75-.716,2.38,2.38,0,0,1-.716-1.75v-5.918a2.38,2.38,0,0,1,.716-1.75,2.38,2.38,0,0,1,1.75-.716,2.38,2.38,0,0,1,1.75.716,2.38,2.38,0,0,1,.716,1.75v5.918a2.38,2.38,0,0,1-.716,1.75A2.38,2.38,0,0,1,228.331-849.151ZM228.331-854.575Zm-.74,11.836v-2.511a6.242,6.242,0,0,1-3.775-1.809,6.23,6.23,0,0,1-1.842-3.792.644.644,0,0,1,.165-.539.673.673,0,0,1,.52-.225.707.707,0,0,1,.527.217,1.079,1.079,0,0,1,.283.532,4.735,4.735,0,0,0,1.657,3,4.787,4.787,0,0,0,3.2,1.186,4.744,4.744,0,0,0,3.217-1.2,4.79,4.79,0,0,0,1.644-2.985,1.079,1.079,0,0,1,.283-.532.707.707,0,0,1,.527-.217.673.673,0,0,1,.52.225.644.644,0,0,1,.165.539,6.307,6.307,0,0,1-1.829,3.762,6.207,6.207,0,0,1-3.787,1.839v2.511a.715.715,0,0,1-.213.527.715.715,0,0,1-.527.213.715.715,0,0,1-.527-.213A.715.715,0,0,1,227.591-842.74Zm.74-7.89a.954.954,0,0,0,.7-.284.954.954,0,0,0,.284-.7v-5.918a.954.954,0,0,0-.284-.7.954.954,0,0,0-.7-.284.954.954,0,0,0-.7.284.954.954,0,0,0-.284.7v5.918a.954.954,0,0,0,.284.7A.954.954,0,0,0,228.331-850.63Z" transform="translate(-221.968 860)" fill="#02143f"/>
</svg>
