<svg xmlns="http://www.w3.org/2000/svg" width="20.526" height="18" viewBox="0 0 20.526 18">
  <path id="position" d="M137.19-764.31a1.812,1.812,0,0,1-1.3-.508,1.7,1.7,0,0,1-.53-1.28,1.689,1.689,0,0,1,.309-.987,1.782,1.782,0,0,1,.81-.646l4.8-1.9v-3.55a13,13,0,0,1-3.8,3.19,10.56,10.56,0,0,1-4.394,1.133v-1.786a8.025,8.025,0,0,0,3.522-.9,10.016,10.016,0,0,0,2.945-2.378l1.6-1.871a2.112,2.112,0,0,1,.726-.547,2.107,2.107,0,0,1,.881-.189h1.183a2.107,2.107,0,0,1,.881.189,2.114,2.114,0,0,1,.726.547l1.6,1.871a10.019,10.019,0,0,0,2.945,2.378,8.025,8.025,0,0,0,3.522.9v1.786a10.558,10.558,0,0,1-4.394-1.133,13,13,0,0,1-3.8-3.19v3.55l4.8,1.9a1.781,1.781,0,0,1,.81.646,1.69,1.69,0,0,1,.31.987,1.7,1.7,0,0,1-.53,1.28,1.813,1.813,0,0,1-1.3.508h-8.52v-.387a1.606,1.606,0,0,1,.452-1.187,1.606,1.606,0,0,1,1.187-.452H146.3a.579.579,0,0,0,.429-.162.58.58,0,0,0,.163-.429.582.582,0,0,0-.163-.43.583.583,0,0,0-.429-.162h-3.687a2.73,2.73,0,0,0-2.015.808,2.73,2.73,0,0,0-.807,2.015v.387Zm6.153-13.631a2.108,2.108,0,0,1-1.546-.638,2.11,2.11,0,0,1-.638-1.547,2.1,2.1,0,0,1,.638-1.546,2.1,2.1,0,0,1,1.546-.639,2.1,2.1,0,0,1,1.546.639,2.1,2.1,0,0,1,.638,1.546,2.111,2.111,0,0,1-.638,1.547A2.108,2.108,0,0,1,143.343-777.94Z" transform="translate(-133.08 782.31)" fill="#02143f"/>
</svg>
