<svg id="practicing" xmlns="http://www.w3.org/2000/svg" width="18.033" height="18" viewBox="0 0 18.033 18">
  <path id="moon_stars_24dp_000_FILL0_wght300_GRAD0_opsz24" d="M110.735-854.6l-2.506-2.506,2.506-2.506,2.506,2.506Zm4.739,2.844-1.559-1.559,1.559-1.558,1.559,1.558ZM108.1-841.61a8.818,8.818,0,0,1-3.545-.717,9.23,9.23,0,0,1-2.887-1.95,9.229,9.229,0,0,1-1.95-2.887A8.818,8.818,0,0,1,99-850.709a8.771,8.771,0,0,1,1.9-5.546,8.779,8.779,0,0,1,4.91-3.191,9.987,9.987,0,0,0,.47,4.426,9.718,9.718,0,0,0,2.361,3.771,9.718,9.718,0,0,0,3.771,2.361,9.987,9.987,0,0,0,4.426.47,8.692,8.692,0,0,1-3.184,4.91A8.8,8.8,0,0,1,108.1-841.61Zm0-1.422a7.5,7.5,0,0,0,3.863-1.043,7.5,7.5,0,0,0,2.8-2.867,11.69,11.69,0,0,1-3.863-1.035,11.335,11.335,0,0,1-3.27-2.291,11.477,11.477,0,0,1-2.3-3.266,11.147,11.147,0,0,1-1.019-3.858,7.391,7.391,0,0,0-2.855,2.808,7.629,7.629,0,0,0-1.031,3.874,7.4,7.4,0,0,0,2.239,5.438A7.4,7.4,0,0,0,108.1-843.032ZM107.625-850.268Z" transform="translate(-99 859.61)" fill="#02143f"/>
</svg>
