<svg id="prayers" xmlns="http://www.w3.org/2000/svg" width="21.746" height="18" viewBox="0 0 21.746 18">
  <path id="mosque_24dp_000_FILL0_wght300_GRAD0_opsz24" d="M10.925-890.08v-11.261a1.905,1.905,0,0,1-.671-.6A1.492,1.492,0,0,1,10-902.8a2.074,2.074,0,0,1,.457-1.122,9.009,9.009,0,0,1,1.162-1.325,9.009,9.009,0,0,1,1.162,1.325,2.074,2.074,0,0,1,.457,1.122,1.492,1.492,0,0,1-.254.862,1.905,1.905,0,0,1-.671.6v4.321h2.313V-899.1a1.623,1.623,0,0,1,.366-1.026,1.518,1.518,0,0,1,1-.565h.32a3.014,3.014,0,0,1-.564-.932,3.036,3.036,0,0,1-.194-1.086,3.213,3.213,0,0,1,.413-1.6,3.561,3.561,0,0,1,1.109-1.211l3.8-2.557,3.8,2.557a3.561,3.561,0,0,1,1.109,1.211,3.213,3.213,0,0,1,.413,1.6A3.036,3.036,0,0,1,26-901.625a3.014,3.014,0,0,1-.564.932h.32a1.518,1.518,0,0,1,1,.565,1.623,1.623,0,0,1,.366,1.026v2.082h2.313v-4.321a1.905,1.905,0,0,1-.671-.6,1.492,1.492,0,0,1-.254-.862,2.074,2.074,0,0,1,.457-1.122,9.009,9.009,0,0,1,1.162-1.325,9.008,9.008,0,0,1,1.162,1.325,2.074,2.074,0,0,1,.457,1.122,1.492,1.492,0,0,1-.254.862,1.905,1.905,0,0,1-.671.6v11.261H22.03v-3.47a1.115,1.115,0,0,0-.337-.819,1.115,1.115,0,0,0-.819-.337,1.115,1.115,0,0,0-.819.337,1.115,1.115,0,0,0-.337.819v3.47Zm8-10.642h3.886a1.918,1.918,0,0,0,1.409-.58,1.917,1.917,0,0,0,.58-1.408,2,2,0,0,0-.235-.957,1.968,1.968,0,0,0-.658-.721l-3.04-2.023-3.04,2.023a1.968,1.968,0,0,0-.658.721,2,2,0,0,0-.235.957,1.917,1.917,0,0,0,.58,1.408A1.918,1.918,0,0,0,18.93-900.722Zm-6.616,9.254h6.015v-2.082a2.455,2.455,0,0,1,.742-1.8,2.453,2.453,0,0,1,1.8-.742,2.456,2.456,0,0,1,1.8.742,2.453,2.453,0,0,1,.743,1.8v2.082h6.015v-4.164h-3.7v-3.47a.224.224,0,0,0-.067-.165.224.224,0,0,0-.165-.067H16.246a.224.224,0,0,0-.165.067.224.224,0,0,0-.067.165v3.47h-3.7ZM20.873-899.334ZM20.873-900.722ZM20.873-900.693Z" transform="translate(-10 908.08)" fill="#02143f"/>
</svg>
