<svg xmlns="http://www.w3.org/2000/svg" width="25.117" height="23.989" viewBox="0 0 25.117 23.989">
  <g id="Component_43_2" data-name="Component 43 – 2" transform="translate(0.531 0.505)">
    <g id="Component_39_1" data-name="Component 39 – 1">
      <path id="Path_568" data-name="Path 568" d="M323.622,6583.371l3.779-1.338,1.259-2.6,3.936,1.337,2.834-1.337,1.811,2.6,3.936,1.338-.63,2.913,1.26,1.967,1.1,1.338-2.362,2.676v3.7l-3.306,1.024-1.811,3.07-3.7-1.575-3.07,1.575-1.732-3.07-3.7-1.024v-3.7l-1.968-3.148,2.362-2.361Z" transform="translate(-320.058 -6578.516)" fill="#fffdfd"/>
      <g id="Component_36_1" data-name="Component 36 – 1">
        <g id="verified_24dp_000_FILL0_wght300_GRAD0_opsz24" transform="translate(-66.93 874.61)" fill="#3d63f3">
          <path d="M 82.75353240966797 -851.3781127929688 L 82.59259796142578 -851.4464721679688 L 78.95722198486328 -852.9899291992188 L 75.32183074951172 -851.4464721679688 L 75.16089630126953 -851.3781127929688 L 75.07167816162109 -851.5285034179688 L 73.03765106201172 -854.95654296875 L 69.17605590820312 -855.8026733398438 L 69.00303649902344 -855.840576171875 L 69.01975250244141 -856.0169067382812 L 69.3968505859375 -859.993896484375 L 66.77941131591797 -862.9887084960938 L 66.66438293457031 -863.1203002929688 L 66.77941131591797 -863.2518920898438 L 69.3968505859375 -866.2467041015625 L 69.01975250244141 -870.2236938476562 L 69.00303649902344 -870.4000244140625 L 69.17605590820312 -870.4379272460938 L 73.03765106201172 -871.2840576171875 L 75.07167816162109 -874.7120971679688 L 75.16089630126953 -874.8624877929688 L 75.32183074951172 -874.7941284179688 L 78.95722198486328 -873.2506103515625 L 82.59259796142578 -874.7941284179688 L 82.75353240966797 -874.8624877929688 L 82.84275054931641 -874.7120971679688 L 84.87677764892578 -871.2840576171875 L 88.73839569091797 -870.4379272460938 L 88.91141510009766 -870.4000244140625 L 88.89469146728516 -870.2236938476562 L 88.51760101318359 -866.2467041015625 L 91.13502502441406 -863.2518920898438 L 91.25005340576172 -863.1203002929688 L 91.13502502441406 -862.9887084960938 L 88.51760101318359 -859.993896484375 L 88.89469146728516 -856.0169067382812 L 88.91141510009766 -855.840576171875 L 88.73839569091797 -855.8026733398438 L 84.87677764892578 -854.95654296875 L 82.84275054931641 -851.5285034179688 L 82.75353240966797 -851.3781127929688 Z M 78.95675659179688 -855.3369140625 L 79.03447723388672 -855.3043212890625 L 81.87946319580078 -854.1129760742188 L 83.44373321533203 -856.7581787109375 L 83.48745727539062 -856.8320922851562 L 83.57117462158203 -856.851318359375 L 86.60409545898438 -857.5469360351562 L 86.32833099365234 -860.6567993164062 L 86.32075500488281 -860.7422485351562 L 86.37748718261719 -860.806640625 L 88.41649627685547 -863.1212768554688 L 86.37653350830078 -865.4708251953125 L 86.32083129882812 -865.5349731445312 L 86.32833099365234 -865.61962890625 L 86.60392761230469 -868.7275390625 L 83.57325744628906 -869.3887939453125 L 83.48919677734375 -869.4071044921875 L 83.4447021484375 -869.4807739257812 L 81.84556579589844 -872.1276245117188 L 79.03527069091797 -870.9365234375 L 78.95769500732422 -870.9036254882812 L 78.87997436523438 -870.9362182617188 L 76.03496551513672 -872.1276245117188 L 74.470703125 -869.4823608398438 L 74.42634582519531 -869.4073486328125 L 74.3411865234375 -869.3887939453125 L 71.31050109863281 -868.7275390625 L 71.58610534667969 -865.61962890625 L 71.59360504150391 -865.5349731445312 L 71.53790283203125 -865.4708251953125 L 69.49794769287109 -863.1212768554688 L 71.53695678710938 -860.806640625 L 71.59360504150391 -860.7423706054688 L 71.58611297607422 -860.656982421875 L 71.31032562255859 -857.5130615234375 L 74.3411865234375 -856.8517456054688 L 74.42524719238281 -856.8334350585938 L 74.46973419189453 -856.759765625 L 76.06887054443359 -854.1129760742188 L 78.87918090820312 -855.3040161132812 L 78.95675659179688 -855.3369140625 Z" stroke="none"/>
          <path d="M 82.67075347900391 -851.6305541992188 L 84.74910736083984 -855.13330078125 L 88.69558715820312 -855.998046875 L 88.31036376953125 -860.0607299804688 L 90.98443603515625 -863.1203002929688 L 88.31036376953125 -866.1798706054688 L 88.69558715820312 -870.2425537109375 L 84.74910736083984 -871.1072998046875 L 82.67075347900391 -874.6100463867188 L 78.95722198486328 -873.0333251953125 L 75.24367523193359 -874.6100463867188 L 73.16532135009766 -871.1072998046875 L 69.21886444091797 -870.2425537109375 L 69.60408782958984 -866.1798706054688 L 66.93000793457031 -863.1203002929688 L 69.60408782958984 -860.0607299804688 L 69.21886444091797 -855.998046875 L 73.16532135009766 -855.13330078125 L 75.24367523193359 -851.6305541992188 L 78.95722198486328 -853.2072143554688 L 82.67075347900391 -851.6305541992188 M 78.95722198486328 -855.119873046875 L 75.98732757568359 -853.8612060546875 L 74.29855346679688 -856.6563720703125 L 71.09571075439453 -857.3551635742188 L 71.38688659667969 -860.6744384765625 L 69.23225402832031 -863.1203002929688 L 71.38688659667969 -865.6019287109375 L 71.09571075439453 -868.8853759765625 L 74.29855346679688 -869.5841674804688 L 75.95150756835938 -872.37939453125 L 78.95722198486328 -871.1206665039062 L 81.92711639404297 -872.37939453125 L 83.61588287353516 -869.5841674804688 L 86.81871795654297 -868.8853759765625 L 86.52755737304688 -865.6019287109375 L 88.68218231201172 -863.1203002929688 L 86.52755737304688 -860.6744384765625 L 86.81871795654297 -857.3909912109375 L 83.61588287353516 -856.6563720703125 L 81.96292114257812 -853.8612060546875 L 78.95722198486328 -855.119873046875 M 82.83631134033203 -851.1256713867188 L 78.95722198486328 -852.7726440429688 L 75.07811737060547 -851.1256713867188 L 72.90998840332031 -854.77978515625 L 68.78721618652344 -855.6831665039062 L 69.18962097167969 -859.9271240234375 L 66.39875793457031 -863.1203002929688 L 69.18962097167969 -866.3134765625 L 68.78721618652344 -870.5574340820312 L 72.90998840332031 -871.4608154296875 L 75.07811737060547 -875.1149291992188 L 78.95722198486328 -873.4678955078125 L 82.83631134033203 -875.1149291992188 L 85.00444030761719 -871.4608154296875 L 89.12723541259766 -870.5574340820312 L 88.72482299804688 -866.3134765625 L 91.51567077636719 -863.1203002929688 L 88.72482299804688 -859.9271240234375 L 89.12723541259766 -855.6831665039062 L 85.00444030761719 -854.77978515625 L 82.83631134033203 -851.1256713867188 Z M 78.95629119873047 -855.5538940429688 L 81.79600524902344 -854.36474609375 L 83.35902404785156 -857.0078125 L 86.38948059082031 -857.7029418945312 L 86.11395263671875 -860.81005859375 L 88.15079498291016 -863.1221923828125 L 86.11410522460938 -865.468017578125 L 86.38914489746094 -868.5697021484375 L 83.36250305175781 -869.2300415039062 L 81.76401519775391 -871.8757934570312 L 78.95815277099609 -870.6866455078125 L 76.11842346191406 -871.8758544921875 L 74.55413055419922 -869.2305297851562 L 71.52528381347656 -868.5697021484375 L 71.80033111572266 -865.468017578125 L 69.76364135742188 -863.1221923828125 L 71.80033111572266 -860.8102416992188 L 71.52494812011719 -857.6708984375 L 74.55193328857422 -857.010498046875 L 76.15042114257812 -854.36474609375 L 78.95629119873047 -855.5538940429688 Z" stroke="none" fill="#fffdfd"/>
        </g>
        <g id="Group_58" data-name="Group 58" transform="translate(7.845 7.308)">
          <g id="call_24dp_000_FILL0_wght300_GRAD0_opsz24">
            <path id="call_24dp_000_FILL0_wght300_GRAD0_opsz24-2" data-name="call_24dp_000_FILL0_wght300_GRAD0_opsz24" d="M147.843-811.635a6.633,6.633,0,0,1-2.795-.647,8.9,8.9,0,0,1-2.579-1.825,8.958,8.958,0,0,1-1.822-2.579,6.616,6.616,0,0,1-.647-2.792.507.507,0,0,1,.148-.372.5.5,0,0,1,.369-.149h1.6a.491.491,0,0,1,.329.122.534.534,0,0,1,.181.3l.282,1.448a.829.829,0,0,1-.012.346.516.516,0,0,1-.15.243l-1.136,1.106a6.821,6.821,0,0,0,.627.951,9.363,9.363,0,0,0,.763.856,8.478,8.478,0,0,0,.861.752,8.667,8.667,0,0,0,.985.646l1.1-1.114a.625.625,0,0,1,.28-.169.8.8,0,0,1,.341-.024l1.366.278a.579.579,0,0,1,.3.19.485.485,0,0,1,.118.32v1.6a.5.5,0,0,1-.149.369A.508.508,0,0,1,147.843-811.635Zm-6.577-5.5.878-.84a.088.088,0,0,0,.031-.052.115.115,0,0,0,0-.062l-.214-1.1a.1.1,0,0,0-.033-.057.1.1,0,0,0-.061-.019h-1.052a.064.064,0,0,0-.047.019.064.064,0,0,0-.019.047,6.284,6.284,0,0,0,.165,1.025A6.258,6.258,0,0,0,141.266-817.133Zm4.281,4.252a5.069,5.069,0,0,0,1.02.349,5.8,5.8,0,0,0,.993.143.064.064,0,0,0,.047-.019.064.064,0,0,0,.019-.047v-1.035a.1.1,0,0,0-.019-.061.1.1,0,0,0-.057-.033l-1.033-.21a.078.078,0,0,0-.05,0,.122.122,0,0,0-.045.031ZM141.266-817.133ZM145.547-812.881Z" transform="translate(-140 820)" fill="#3d63f3"/>
          </g>
          <path id="Path_562" data-name="Path 562" d="M266.86,6587.345c.055,0,1.258-1.259,1.258-1.259l-.492-1.477h-1.532v.547S266.8,6587.345,266.86,6587.345Z" transform="translate(-265.58 -6584.003)" fill="#3d63f3"/>
          <path id="Path_563" data-name="Path 563" d="M.79,0c.056,0,1.3,1.3,1.3,1.3L1.58,2.822H0V2.258S.734,0,.79,0Z" transform="matrix(-0.105, -0.995, 0.995, -0.105, 5.363, 8.19)" fill="#3d63f3"/>
        </g>
      </g>
    </g>
  </g>
</svg>
