<svg xmlns="http://www.w3.org/2000/svg" width="25.117" height="23.989" viewBox="0 0 25.117 23.989">
  <g id="Component_42_2" data-name="Component 42 – 2" transform="translate(0.531 0.505)">
    <g id="Component_38_1" data-name="Component 38 – 1">
      <path id="Path_567" data-name="Path 567" d="M323.622,6583.371l3.779-1.338,1.26-2.6,3.936,1.337,2.834-1.337,1.811,2.6,3.936,1.338-.63,2.913,1.26,1.967,1.1,1.338-2.362,2.678v3.7l-3.306,1.023-1.811,3.07-3.7-1.575-3.07,1.575-1.732-3.07-3.7-1.023v-3.7l-1.968-3.15,2.362-2.361Z" transform="translate(-320.058 -6578.117)" fill="#fffdfd"/>
      <g id="Component_37_1" data-name="Component 37 – 1">
        <g id="verified_24dp_000_FILL0_wght300_GRAD0_opsz24" transform="translate(-66.93 874.61)" fill="#ff927b">
          <path d="M 82.75362396240234 -851.3781127929688 L 82.59268188476562 -851.4464721679688 L 78.95729827880859 -852.9898071289062 L 75.3218994140625 -851.4464721679688 L 75.16095733642578 -851.3781127929688 L 75.07173919677734 -851.5285034179688 L 73.03770446777344 -854.9564819335938 L 69.17607116699219 -855.8026123046875 L 69.0030517578125 -855.8405151367188 L 69.01976776123047 -856.016845703125 L 69.39686584472656 -859.993896484375 L 66.77941131591797 -862.98876953125 L 66.66438293457031 -863.120361328125 L 66.77941131591797 -863.251953125 L 69.39686584472656 -866.2467041015625 L 69.01976776123047 -870.2236938476562 L 69.0030517578125 -870.4000244140625 L 69.17607116699219 -870.4379272460938 L 73.03770446777344 -871.2840576171875 L 75.07173919677734 -874.7122192382812 L 75.16095733642578 -874.8626098632812 L 75.32190704345703 -874.7942504882812 L 78.95729827880859 -873.2506103515625 L 82.59267425537109 -874.7942504882812 L 82.75362396240234 -874.8626098632812 L 82.84284210205078 -874.7122192382812 L 84.87687683105469 -871.2840576171875 L 88.73851776123047 -870.4379272460938 L 88.91153717041016 -870.4000244140625 L 88.89482116699219 -870.2236938476562 L 88.51771545410156 -866.2467041015625 L 91.13516998291016 -863.251953125 L 91.25019836425781 -863.120361328125 L 91.13516998291016 -862.98876953125 L 88.51771545410156 -859.993896484375 L 88.89482116699219 -856.016845703125 L 88.91153717041016 -855.8405151367188 L 88.73851776123047 -855.8026123046875 L 84.87687683105469 -854.9564819335938 L 82.84284210205078 -851.5285034179688 L 82.75362396240234 -851.3781127929688 Z M 71.31036376953125 -857.5130615234375 L 74.34121704101562 -856.8517456054688 L 74.42527770996094 -856.8334350585938 L 74.46977233886719 -856.759765625 L 76.06892395019531 -854.1128540039062 L 78.87924957275391 -855.3040161132812 L 78.95683288574219 -855.3369140625 L 79.03456115722656 -855.3043212890625 L 81.87955474853516 -854.1128540039062 L 83.44384002685547 -856.7581787109375 L 83.48756408691406 -856.8320922851562 L 83.57128143310547 -856.851318359375 L 86.60420227050781 -857.546875 L 86.32845306396484 -860.6567993164062 L 86.32086944580078 -860.7422485351562 L 86.37760162353516 -860.806640625 L 88.4166259765625 -863.1212768554688 L 86.37664794921875 -865.4707641601562 L 86.32095336914062 -865.534912109375 L 86.32845306396484 -865.6195678710938 L 86.60403442382812 -868.7274780273438 L 83.57334899902344 -869.3887939453125 L 83.48930358886719 -869.4071044921875 L 83.44480895996094 -869.4807739257812 L 81.84566497802734 -872.1276245117188 L 79.03534698486328 -870.9365234375 L 78.95777130126953 -870.9036254882812 L 78.88005065917969 -870.9361572265625 L 76.03501892089844 -872.1276245117188 L 74.47074127197266 -869.4823608398438 L 74.42638397216797 -869.4073486328125 L 74.34123229980469 -869.3887939453125 L 71.31053161621094 -868.7274780273438 L 71.58612823486328 -865.6195678710938 L 71.5936279296875 -865.534912109375 L 71.53793334960938 -865.4707641601562 L 69.49796295166016 -863.121337890625 L 71.53697967529297 -860.806640625 L 71.5936279296875 -860.7423706054688 L 71.58614349365234 -860.656982421875 L 71.31036376953125 -857.5130615234375 Z" stroke="none"/>
          <path d="M 82.67083740234375 -851.6305541992188 L 84.74921417236328 -855.1332397460938 L 88.69570922851562 -855.9979858398438 L 88.31047821044922 -860.0606689453125 L 90.98458099365234 -863.120361328125 L 88.31047821044922 -866.1798706054688 L 88.69570922851562 -870.2425537109375 L 84.74921417236328 -871.1072998046875 L 82.67083740234375 -874.6101684570312 L 78.95729827880859 -873.0333251953125 L 75.24374389648438 -874.6101684570312 L 73.16536712646484 -871.1072998046875 L 69.21887969970703 -870.2425537109375 L 69.60410308837891 -866.1798706054688 L 66.93000030517578 -863.120361328125 L 69.60410308837891 -860.0606689453125 L 69.21887969970703 -855.9979858398438 L 73.16536712646484 -855.1332397460938 L 75.24374389648438 -851.6305541992188 L 78.95729827880859 -853.2070922851562 L 82.67083740234375 -851.6305541992188 M 78.95729827880859 -855.119873046875 L 75.98738098144531 -853.861083984375 L 74.29859161376953 -856.6563720703125 L 71.09574890136719 -857.3551635742188 L 71.38690948486328 -860.6744384765625 L 69.23226928710938 -863.120361328125 L 71.38690948486328 -865.6018676757812 L 71.09574890136719 -868.8853149414062 L 74.29859161376953 -869.5841674804688 L 75.95156097412109 -872.37939453125 L 78.95729827880859 -871.1206665039062 L 81.92720794677734 -872.37939453125 L 83.61598968505859 -869.5841674804688 L 86.81881713867188 -868.8853149414062 L 86.52767181396484 -865.6018676757812 L 88.68231964111328 -863.120361328125 L 86.52767181396484 -860.6744384765625 L 86.81881713867188 -857.3909301757812 L 83.61598968505859 -856.6563720703125 L 81.9630126953125 -853.861083984375 L 78.95729827880859 -855.119873046875 M 82.83640289306641 -851.125732421875 L 78.95729827880859 -852.7725219726562 L 75.07817840576172 -851.125732421875 L 72.9100341796875 -854.7797241210938 L 68.7872314453125 -855.6830444335938 L 69.18964385986328 -859.9270629882812 L 66.39875793457031 -863.120361328125 L 69.18963623046875 -866.3134765625 L 68.7872314453125 -870.5574340820312 L 72.9100341796875 -871.4608154296875 L 75.07817840576172 -875.1150512695312 L 78.95729827880859 -873.4678955078125 L 82.83640289306641 -875.1150512695312 L 85.00454711914062 -871.4608154296875 L 89.12735748291016 -870.5574340820312 L 88.72494506835938 -866.3134765625 L 91.51582336425781 -863.120361328125 L 88.72493743896484 -859.9270629882812 L 89.12735748291016 -855.6830444335938 L 85.00454711914062 -854.7797241210938 L 82.83640289306641 -851.125732421875 Z M 78.95636749267578 -855.5538940429688 L 81.79609680175781 -854.3646240234375 L 83.359130859375 -857.0078125 L 86.38958740234375 -857.702880859375 L 86.11406707763672 -860.81005859375 L 88.15092468261719 -863.1222534179688 L 86.11421966552734 -865.4679565429688 L 86.38925933837891 -868.5696411132812 L 83.36260223388672 -869.2300415039062 L 81.76410675048828 -871.8757934570312 L 78.95822906494141 -870.6865844726562 L 76.11848449707031 -871.8758544921875 L 74.55416870117188 -869.2305297851562 L 71.52531433105469 -868.5696411132812 L 71.80036163330078 -865.4679565429688 L 69.76366424560547 -863.1222534179688 L 71.80036163330078 -860.8102416992188 L 71.52498626708984 -857.6708984375 L 74.55197906494141 -857.010498046875 L 76.15047454833984 -854.3646850585938 L 78.95636749267578 -855.5538940429688 Z" stroke="none" fill="#fffdfd"/>
        </g>
        <g id="Icon_feather-camera" data-name="Icon feather-camera" transform="translate(7.965 7.839)">
          <g id="Path_564" data-name="Path 564" transform="translate(-1.5 -4.5)" fill="none" stroke-linecap="round" stroke-linejoin="round">
            <path d="M9.624,10.409a.739.739,0,0,1-.739.739H2.239a.739.739,0,0,1-.739-.739V6.346a.739.739,0,0,1,.739-.739H3.716L4.454,4.5H6.67l.739,1.108H8.886a.739.739,0,0,1,.739.739Z" stroke="none"/>
            <path d="M 8.885820388793945 11.14723873138428 C 9.293730735778809 11.14723873138428 9.62440013885498 10.81656837463379 9.62440013885498 10.40865802764893 L 9.62440013885498 6.346458435058594 C 9.62440013885498 5.938548564910889 9.293730735778809 5.607868194580078 8.885820388793945 5.607868194580078 L 7.408660411834717 5.607868194580078 L 6.670070648193359 4.499998569488525 L 4.454330444335938 4.499998569488525 L 3.715750455856323 5.607868194580078 L 2.238580465316772 5.607868194580078 C 1.830670595169067 5.607868194580078 1.500000596046448 5.938548564910889 1.500000596046448 6.346458435058594 L 1.500000596046448 10.40865802764893 C 1.500000596046448 10.81656837463379 1.830670595169067 11.14723873138428 2.238580465316772 11.14723873138428 L 8.885820388793945 11.14723873138428 M 8.885820388793945 12.14723873138428 L 2.238580465316772 12.14723873138428 C 1.27992057800293 12.14723873138428 0.500000536441803 11.36731815338135 0.500000536441803 10.40865802764893 L 0.500000536441803 6.346458435058594 C 0.500000536441803 5.387798309326172 1.27992057800293 4.607868194580078 2.238580465316772 4.607868194580078 L 3.180567264556885 4.607868194580078 L 3.622280597686768 3.945298433303833 C 3.807750463485718 3.667098522186279 4.119980335235596 3.499998331069946 4.454330444335938 3.499998331069946 L 6.670070648193359 3.499998331069946 C 7.004420757293701 3.499998331069946 7.316650390625 3.667098522186279 7.502120494842529 3.945288419723511 L 7.943846702575684 4.607868194580078 L 8.885820388793945 4.607868194580078 C 9.844480514526367 4.607868194580078 10.62440013885498 5.387798309326172 10.62440013885498 6.346458435058594 L 10.62440013885498 10.40865802764893 C 10.62440013885498 11.36731815338135 9.844480514526367 12.14723873138428 8.885820388793945 12.14723873138428 Z" stroke="none" fill="#ff927b"/>
          </g>
          <path id="Path_565" data-name="Path 565" d="M14.954,14.977A1.477,1.477,0,1,1,13.477,13.5,1.477,1.477,0,0,1,14.954,14.977Z" transform="translate(-9.415 -11.284)" fill="none" stroke="#ff927b" stroke-linecap="round" stroke-linejoin="round" stroke-width="1"/>
        </g>
      </g>
    </g>
  </g>
</svg>
