<svg id="sect" xmlns="http://www.w3.org/2000/svg" width="26.072" height="18" viewBox="0 0 26.072 18">
  <path id="menu_book_24dp_000_FILL0_wght200_GRAD0_opsz24" d="M95.493-755.5v-1.213a9.523,9.523,0,0,1,2.25-.8,11.361,11.361,0,0,1,2.463-.266,10.046,10.046,0,0,1,1.386.093q.664.093,1.371.263v1.183a7.533,7.533,0,0,0-1.33-.3,11.154,11.154,0,0,0-1.428-.084,10.682,10.682,0,0,0-2.467.284A9.35,9.35,0,0,0,95.493-755.5Zm0,7.12v-1.264a8.6,8.6,0,0,1,2.238-.8,11.764,11.764,0,0,1,2.476-.266,10.007,10.007,0,0,1,1.386.093q.664.093,1.371.263v1.183a7.571,7.571,0,0,0-1.33-.3,11.153,11.153,0,0,0-1.428-.084,9.97,9.97,0,0,0-2.467.306A9.814,9.814,0,0,0,95.493-748.384Zm0-3.535v-1.264a9.545,9.545,0,0,1,2.25-.8,11.361,11.361,0,0,1,2.463-.266,10.046,10.046,0,0,1,1.386.093q.664.093,1.371.263v1.183a7.566,7.566,0,0,0-1.33-.3,11.142,11.142,0,0,0-1.428-.084,9.858,9.858,0,0,0-2.467.31A10.164,10.164,0,0,0,95.493-751.918ZM85.866-747.1a14,14,0,0,1,3.32.392,12.721,12.721,0,0,1,3.2,1.277v-12.79a10.4,10.4,0,0,0-3.111-1.512,11.934,11.934,0,0,0-3.407-.5,13.208,13.208,0,0,0-2.054.14,11.217,11.217,0,0,0-1.957.521.788.788,0,0,0-.426.288.728.728,0,0,0-.125.414v11.752a.568.568,0,0,0,.251.514.562.562,0,0,0,.552.038,10,10,0,0,1,1.651-.386A13.847,13.847,0,0,1,85.866-747.1Zm7.822,1.67a12.721,12.721,0,0,1,3.2-1.277,14,14,0,0,1,3.32-.392,13.847,13.847,0,0,1,2.11.145,10,10,0,0,1,1.651.386.562.562,0,0,0,.552-.038.568.568,0,0,0,.251-.514v-11.752a.672.672,0,0,0-.125-.4.963.963,0,0,0-.426-.3,11.217,11.217,0,0,0-1.957-.521,13.208,13.208,0,0,0-2.054-.14,11.936,11.936,0,0,0-3.407.5,10.4,10.4,0,0,0-3.111,1.512v12.79Zm-.652,1.89a13.058,13.058,0,0,0-3.414-1.672,12.248,12.248,0,0,0-3.755-.584,11.664,11.664,0,0,0-2,.17,9.358,9.358,0,0,0-1.911.547,1.308,1.308,0,0,1-1.332-.17A1.465,1.465,0,0,1,80-746.5v-12.6a1.681,1.681,0,0,1,.255-.9,1.341,1.341,0,0,1,.713-.576,10.687,10.687,0,0,1,2.389-.735,13.85,13.85,0,0,1,2.509-.228,12.824,12.824,0,0,1,3.736.551,13.3,13.3,0,0,1,3.433,1.6,13.3,13.3,0,0,1,3.433-1.6,12.824,12.824,0,0,1,3.736-.551,13.85,13.85,0,0,1,2.509.228,10.687,10.687,0,0,1,2.389.735,1.341,1.341,0,0,1,.713.576,1.681,1.681,0,0,1,.255.9v12.6a1.372,1.372,0,0,1-.673,1.228,1.537,1.537,0,0,1-1.433.145,9.38,9.38,0,0,0-1.849-.509,11.575,11.575,0,0,0-1.911-.158,12.248,12.248,0,0,0-3.755.584A13.059,13.059,0,0,0,93.036-743.54ZM86.844-753Z" transform="translate(-80 761.54)" fill="#02143f"/>
</svg>
