<svg id="smoking" xmlns="http://www.w3.org/2000/svg" width="21.46" height="18" viewBox="0 0 21.46 18">
  <path id="smoking_rooms_24dp_000_FILL0_wght300_GRAD0_opsz24" d="M103.08-831.23v-2.716h16.467v2.716Zm17.606,0v-2.716h1.358v2.716Zm2.5,0v-2.716h1.358v2.716Zm-2.5-4.073v-1.48a2.2,2.2,0,0,0-.655-1.683,2.2,2.2,0,0,0-1.566-.616H116.7a3.324,3.324,0,0,1-2.452-1.021,3.4,3.4,0,0,1-1.012-2.487,3.273,3.273,0,0,1,1.012-2.425,3.367,3.367,0,0,1,2.452-1v1.358a2.1,2.1,0,0,0-1.48.585,1.933,1.933,0,0,0-.626,1.476,2.081,2.081,0,0,0,.626,1.522,2.017,2.017,0,0,0,1.48.631h1.765a3.569,3.569,0,0,1,2.52.986,3.187,3.187,0,0,1,1.058,2.425v1.725Zm2.5,0v-2.562a4.238,4.238,0,0,0-1.309-3.158,4.462,4.462,0,0,0-3.245-1.279v-1.358a2.006,2.006,0,0,0,1.469-.615,2.006,2.006,0,0,0,.615-1.469,2.068,2.068,0,0,0-.615-1.5,1.989,1.989,0,0,0-1.469-.626v-1.358a3.287,3.287,0,0,1,2.442,1.023,3.4,3.4,0,0,1,1,2.464,3.145,3.145,0,0,1-.324,1.456,3.893,3.893,0,0,1-.837,1.1,5.884,5.884,0,0,1,2.585,2.016,5.387,5.387,0,0,1,1.046,3.306v2.562h-1.358Z" transform="translate(-103.08 849.23)" fill="#02143f"/>
</svg>
