<svg xmlns="http://www.w3.org/2000/svg" width="19.89" height="18" viewBox="0 0 19.89 18">
  <path id="translate_24dp_000_FILL0_wght400_GRAD0_opsz24" d="M49.81-862l4.1-10.8h1.89l4.1,10.8H58l-.967-2.745H52.667L51.7-862Zm-7.11-2.7-1.26-1.26,4.545-4.545a10.408,10.408,0,0,1-1.429-1.8,15.6,15.6,0,0,1-1.181-2.3h1.89a13.782,13.782,0,0,0,.9,1.53,10.352,10.352,0,0,0,1.08,1.3,10.763,10.763,0,0,0,1.541-2.081,13.142,13.142,0,0,0,1.2-2.554H40v-1.8h6.3V-880h1.8v1.8h6.3v1.8H51.79a16.421,16.421,0,0,1-1.418,3.33,11.3,11.3,0,0,1-1.868,2.61l2.16,2.205-.675,1.845-2.745-2.812Zm10.53-1.62h3.24l-1.62-4.59Z" transform="translate(-40 880)" fill="#02143f"/>
</svg>
