<svg id="want_cildren" xmlns="http://www.w3.org/2000/svg" width="15.556" height="18" viewBox="0 0 15.556 18">
  <path id="baby_changing_station_24dp_000_FILL0_wght300_GRAD0_opsz24" d="M130-882v-8.41l1.392-4.077a1.4,1.4,0,0,1,.577-.785,1.609,1.609,0,0,1,.909-.284,1.55,1.55,0,0,1,.315.033,1.4,1.4,0,0,1,.313.105l3.74,1.639h2.087v1.333h-2.4l-2.579-1.121-1.241,3.754V-882Zm5.333-3.333v-1.333h10.222v1.333Zm8.754-2.222a1.159,1.159,0,0,1-.848-.348,1.149,1.149,0,0,1-.35-.846,1.158,1.158,0,0,1,.348-.848,1.148,1.148,0,0,1,.846-.35,1.159,1.159,0,0,1,.848.348,1.148,1.148,0,0,1,.35.846,1.159,1.159,0,0,1-.348.848A1.148,1.148,0,0,1,144.088-887.556Zm-5.37,0a1.547,1.547,0,0,1-1.135-.472,1.547,1.547,0,0,1-.472-1.135v-1.06h-1.778v-1.333h2.308a.778.778,0,0,1,.572.231.778.778,0,0,1,.231.572v.974h2.222v-1.778H142v2.393a1.547,1.547,0,0,1-.472,1.135,1.547,1.547,0,0,1-1.135.472Zm-4.581-9.162a1.58,1.58,0,0,1-1.159-.482,1.58,1.58,0,0,1-.482-1.159,1.581,1.581,0,0,1,.482-1.159,1.58,1.58,0,0,1,1.159-.482,1.581,1.581,0,0,1,1.159.482,1.581,1.581,0,0,1,.482,1.159,1.58,1.58,0,0,1-.482,1.159A1.581,1.581,0,0,1,134.137-896.718Z" transform="translate(-130 900)" fill="#02143f"/>
</svg>
