<svg id="work" xmlns="http://www.w3.org/2000/svg" width="19.543" height="18" viewBox="0 0 19.543 18">
  <path id="work-2" data-name="work" d="M101.859-822a1.8,1.8,0,0,1-1.319-.539,1.8,1.8,0,0,1-.54-1.32v-10.682a1.793,1.793,0,0,1,.54-1.318,1.793,1.793,0,0,1,1.319-.54h4.312v-1.74a1.79,1.79,0,0,1,.54-1.319,1.79,1.79,0,0,1,1.319-.541h3.481a1.79,1.79,0,0,1,1.319.541,1.79,1.79,0,0,1,.54,1.319v1.74h4.312a1.793,1.793,0,0,1,1.319.54,1.793,1.793,0,0,1,.54,1.318v10.682a1.8,1.8,0,0,1-.54,1.32,1.8,1.8,0,0,1-1.319.539Zm0-1.543h15.824a.3.3,0,0,0,.218-.1.3.3,0,0,0,.1-.218v-10.682a.3.3,0,0,0-.1-.218.3.3,0,0,0-.218-.1H101.859a.3.3,0,0,0-.218.1.3.3,0,0,0-.1.218v10.682a.3.3,0,0,0,.1.218A.3.3,0,0,0,101.859-823.543Zm5.855-12.856h4.114v-1.74a.3.3,0,0,0-.1-.218.3.3,0,0,0-.218-.1h-3.481a.3.3,0,0,0-.218.1.3.3,0,0,0-.1.218Zm-6.172,12.856v0Z" transform="translate(-100 840)" fill="#02143f"/>
</svg>
